<svg width="369" height="234" viewBox="0 0 369 234" fill="none" xmlns="http://www.w3.org/2000/svg">
<path d="M70 174.5L35.5 175L138.5 0L197 99H162L138 59L70 174.5Z" fill="#549FE3"/>
<path d="M223.5 204.5L17.5 205L0.40918 234H276.5L241.314 174H205.5L223.5 204.5Z" fill="#549FE3"/>
<path d="M157.24 136.314V133.506C157.24 123.732 161.506 115.74 176.788 115.74H178.732C183.592 115.74 188.236 116.388 192.664 117.522V126.324C187.696 124.866 182.134 124.326 178.462 124.326C167.176 124.326 167.176 128.754 167.176 134.91C167.176 141.066 167.176 145.548 178.462 145.548C182.134 145.548 187.696 144.954 192.664 143.496V152.352C188.236 153.432 183.592 154.08 178.732 154.08H176.788C161.506 154.08 157.24 146.088 157.24 136.314ZM201.718 140.58V138.42C201.718 130.968 205.066 124.92 217.162 124.92H218.674C230.77 124.92 234.118 130.968 234.118 138.42V140.58C234.118 148.032 230.77 154.08 218.674 154.08H217.162C205.066 154.08 201.718 148.032 201.718 140.58ZM210.358 139.5C210.358 143.01 210.358 146.25 217.918 146.25C225.478 146.25 225.478 143.01 225.478 139.5C225.478 135.99 225.478 132.75 217.918 132.75C210.358 132.75 210.358 135.99 210.358 139.5ZM258.242 146.79C263.75 146.79 264.182 145.872 264.182 145.062C264.182 143.442 262.238 143.28 257.972 143.172C253.598 143.064 243.662 142.74 243.662 134.37V133.83C243.662 129.132 246.902 124.92 258.134 124.92H259.646C263.696 124.92 267.638 125.406 271.31 126.27V133.776C267.044 132.804 262.832 132.21 258.296 132.21C252.734 132.21 252.302 133.182 252.302 133.992C252.302 135.504 254.138 135.72 258.512 135.828C262.724 135.936 272.822 136.206 272.822 144.63V145.17C272.822 149.868 269.582 154.08 258.35 154.08H256.838C252.194 154.08 247.766 153.594 243.554 152.73V145.224C248.306 146.196 253.598 146.79 258.242 146.79ZM282.83 116.82C288.986 116.118 296.06 115.74 302.594 115.74H304.106C316.202 115.74 319.55 120.6 319.55 126.54V127.62C319.55 130.806 317.984 133.56 313.124 134.856C318.794 136.152 320.63 139.014 320.63 142.2V143.28C320.63 149.22 317.066 154.08 304.106 154.08H302.594C296.06 154.08 288.986 153.702 282.83 153V116.82ZM302.81 124.38C300.164 124.38 296.114 124.542 292.55 124.866V130.86H302.162C310.91 130.86 310.91 129.456 310.91 127.62C310.91 125.838 310.64 124.38 302.81 124.38ZM302.162 139.5H292.55V144.954C296.114 145.278 300.11 145.44 302.972 145.44C311.612 145.44 311.99 143.982 311.99 142.2C311.99 140.688 311.99 139.5 302.162 139.5ZM365.508 116.82V125.46H340.614V130.86H360.108V139.5H340.614V144.36H365.508V153H330.894V116.82H365.508Z" fill="#0F1D28"/>
</svg>
